<svg width="24" height="24" viewBox="0 0 24 24" fill="none" xmlns="http://www.w3.org/2000/svg">
<path d="M7.0258 17.1324C9.20048 19.3071 12.3784 19.8671 15.0698 18.8124L16.5835 20.3261C13.025 22.1085 8.58028 21.5153 5.61158 18.5466C2.64289 15.5779 2.04972 11.1333 3.83207 7.57477L5.34574 9.08845C4.2911 11.7798 4.85112 14.9577 7.0258 17.1324Z" fill="#1B1B1B"/>
<path d="M17.6324 6.52581C15.4577 4.3511 12.2798 3.7911 9.58836 4.84578L8.07469 3.33211C11.6333 1.54972 16.078 2.14288 19.0467 5.11159C22.0154 8.0803 22.6085 12.525 20.8261 16.0835L19.3125 14.5698C20.3672 11.8784 19.8072 8.70051 17.6324 6.52581Z" fill="#1B1B1B"/>
<path d="M6.02605 3.68755L8.69866 6.36016C9.20634 6.86784 9.20634 7.69095 8.69866 8.19864C8.19098 8.70632 7.36786 8.70632 6.86018 8.19864L4.18757 5.52603C3.67989 5.01835 3.67989 4.19523 4.18757 3.68755C4.69525 3.17987 5.51837 3.17987 6.02605 3.68755Z" fill="#1B1B1B"/>
<path d="M20.8124 18.4739L18.1398 15.8013C17.6321 15.2936 16.809 15.2936 16.3013 15.8013C15.7936 16.309 15.7936 17.1321 16.3013 17.6398L18.9739 20.3124C19.4816 20.8201 20.3047 20.8201 20.8124 20.3124C21.3201 19.8047 21.3201 18.9816 20.8124 18.4739Z" fill="#1B1B1B"/>
<path d="M14.7273 14.2273C13.4972 15.4575 11.5027 15.4575 10.2726 14.2273C9.0424 12.9972 9.0424 11.0027 10.2726 9.77255C11.5027 8.5424 13.4972 8.5424 14.7273 9.77255C15.9575 11.0027 15.9575 12.9972 14.7273 14.2273Z" fill="#1B1B1B"/>
</svg>
