<svg width="206" height="29" viewBox="0 0 206 29" fill="none" xmlns="http://www.w3.org/2000/svg">
<path d="M7.26 18.97C9.58 18.97 10.74 18.11 10.74 16.39C10.74 15.69 10.56 15.14 10.2 14.74C9.86 14.34 9.22 13.99 8.28 13.69L5.82 12.88C2.88 11.92 1.41 9.99 1.41 7.09C1.41 5.41 1.93 4.03 2.97 2.95C4.03 1.85 5.68 1.3 7.92 1.3C8.86 1.3 9.79 1.41 10.71 1.63C11.63 1.83 12.61 2.16 13.65 2.62L12.54 5.71C11.58 5.33 10.76 5.06 10.08 4.9C9.42 4.72 8.74 4.63 8.04 4.63C7.12 4.63 6.39 4.8 5.85 5.14C5.33 5.46 5.07 6.05 5.07 6.91C5.07 7.55 5.25 8.08 5.61 8.5C5.99 8.9 6.61 9.24 7.47 9.52L9.93 10.33C11.41 10.83 12.52 11.56 13.26 12.52C14.02 13.46 14.4 14.71 14.4 16.27C14.4 18.07 13.83 19.53 12.69 20.65C11.55 21.75 9.76 22.3 7.32 22.3C6.36 22.3 5.36 22.19 4.32 21.97C3.3 21.73 2.18 21.33 0.96 20.77L2.07 17.68C3.19 18.16 4.14 18.5 4.92 18.7C5.72 18.88 6.5 18.97 7.26 18.97ZM21.3473 11.47V22H17.8973V6.79H21.1673V8.8C22.1073 7.98 22.9773 7.39 23.7773 7.03C24.5773 6.67 25.3973 6.49 26.2373 6.49C28.0973 6.49 29.3673 7.31 30.0473 8.95C31.0473 8.07 31.9773 7.44 32.8373 7.06C33.6973 6.68 34.5673 6.49 35.4473 6.49C36.8473 6.49 37.9173 6.96 38.6573 7.9C39.3973 8.82 39.7673 10.12 39.7673 11.8V22H36.3173V12.22C36.3173 10.54 35.6773 9.7 34.3973 9.7C33.8973 9.7 33.3473 9.82 32.7473 10.06C32.1473 10.3 31.4173 10.77 30.5573 11.47V22H27.1073V12.22C27.1073 10.54 26.4673 9.7 25.1873 9.7C24.6873 9.7 24.1373 9.82 23.5373 10.06C22.9373 10.3 22.2073 10.77 21.3473 11.47ZM55.8431 22.15C54.8231 22.15 54.0031 21.94 53.3831 21.52C52.7831 21.1 52.3431 20.58 52.0631 19.96C51.2031 20.76 50.3731 21.35 49.5731 21.73C48.7731 22.11 47.9131 22.3 46.9931 22.3C45.6531 22.3 44.6631 21.87 44.0231 21.01C43.4031 20.15 43.0931 19.06 43.0931 17.74C43.0931 16.86 43.2531 16.09 43.5731 15.43C43.9131 14.75 44.4631 14.22 45.2231 13.84C45.9831 13.46 47.0231 13.27 48.3431 13.27C48.8631 13.27 49.4031 13.31 49.9631 13.39C50.5231 13.45 51.0831 13.53 51.6431 13.63V11.86C51.6431 11.02 51.4131 10.45 50.9531 10.15C50.4931 9.83 49.8731 9.67 49.0931 9.67C48.4931 9.67 47.8331 9.75 47.1131 9.91C46.4131 10.07 45.6531 10.32 44.8331 10.66L43.8431 7.72C45.8631 6.9 47.6931 6.49 49.3331 6.49C50.8131 6.49 51.9531 6.74 52.7531 7.24C53.5731 7.74 54.1431 8.4 54.4631 9.22C54.7831 10.04 54.9431 10.92 54.9431 11.86V17.71C54.9431 18.01 55.0231 18.3 55.1831 18.58C55.3631 18.84 55.7031 18.97 56.2031 18.97H56.5331V22.15H55.8431ZM46.4231 17.68C46.4231 18.22 46.5431 18.65 46.7831 18.97C47.0231 19.27 47.3731 19.42 47.8331 19.42C48.2931 19.42 48.8131 19.3 49.3931 19.06C49.9731 18.82 50.7231 18.26 51.6431 17.38V16.09C50.6031 15.91 49.5831 15.82 48.5831 15.82C47.8031 15.82 47.2431 15.98 46.9031 16.3C46.5831 16.62 46.4231 17.08 46.4231 17.68ZM68.1082 9.94C67.1682 9.94 66.2682 10.09 65.4082 10.39C64.5682 10.67 63.7582 11.13 62.9782 11.77V22H59.5282V6.79H62.7982V9.13C63.8182 8.17 64.7282 7.49 65.5282 7.09C66.3282 6.69 67.1882 6.49 68.1082 6.49V9.94ZM80.2798 21.49C79.7598 21.73 79.1598 21.92 78.4798 22.06C77.7998 22.22 77.1098 22.3 76.4098 22.3C75.2498 22.3 74.3198 22.06 73.6198 21.58C72.9198 21.1 72.4098 20.43 72.0898 19.57C71.7898 18.71 71.6398 17.73 71.6398 16.63V9.79H69.1798V6.79H71.6398V2.83H75.0898V6.79H79.8298V9.79H75.0898V16.63C75.0898 17.55 75.2598 18.19 75.5998 18.55C75.9598 18.89 76.4698 19.06 77.1298 19.06C77.4498 19.06 77.7898 19.03 78.1498 18.97C78.5298 18.89 78.9498 18.76 79.4098 18.58L80.2798 21.49ZM83.5036 22V1.6H90.2236C92.3636 1.6 93.9636 2.14 95.0236 3.22C96.1036 4.3 96.6436 5.74 96.6436 7.54V9.13C96.6436 10.93 96.1036 12.38 95.0236 13.48C93.9636 14.56 92.3636 15.1 90.2236 15.1H87.1036V22H83.5036ZM90.2236 5.05H87.1036V11.65H90.2236C91.1036 11.65 91.7736 11.43 92.2336 10.99C92.7136 10.55 92.9536 9.93 92.9536 9.13V7.54C92.9536 6.76 92.7136 6.15 92.2336 5.71C91.7736 5.27 91.1036 5.05 90.2236 5.05ZM108.567 9.94C107.627 9.94 106.727 10.09 105.867 10.39C105.027 10.67 104.217 11.13 103.437 11.77V22H99.9872V6.79H103.257V9.13C104.277 8.17 105.187 7.49 105.987 7.09C106.787 6.69 107.647 6.49 108.567 6.49V9.94ZM124.039 13.48V15.28C124.039 17.4 123.459 19.1 122.299 20.38C121.139 21.66 119.499 22.3 117.379 22.3C115.259 22.3 113.619 21.66 112.459 20.38C111.299 19.1 110.719 17.4 110.719 15.28V13.48C110.719 11.36 111.289 9.67 112.429 8.41C113.589 7.13 115.239 6.49 117.379 6.49C119.519 6.49 121.159 7.13 122.299 8.41C123.459 9.67 124.039 11.36 124.039 13.48ZM120.499 13.48C120.499 12.26 120.229 11.31 119.689 10.63C119.149 9.93 118.379 9.58 117.379 9.58C116.379 9.58 115.609 9.93 115.069 10.63C114.529 11.31 114.259 12.26 114.259 13.48V15.28C114.259 16.5 114.529 17.46 115.069 18.16C115.609 18.86 116.379 19.21 117.379 19.21C118.379 19.21 119.149 18.86 119.689 18.16C120.229 17.46 120.499 16.5 120.499 15.28V13.48ZM131.447 3.91H127.817V0.339998H131.447V3.91ZM124.787 28.69V25.45C125.787 25.45 126.557 25.21 127.097 24.73C127.637 24.25 127.907 23.38 127.907 22.12V6.79H131.357V22.12C131.357 23.26 131.167 24.33 130.787 25.33C130.427 26.33 129.767 27.14 128.807 27.76C127.867 28.38 126.527 28.69 124.787 28.69ZM147.66 21.13C146.62 21.55 145.64 21.85 144.72 22.03C143.8 22.21 142.93 22.3 142.11 22.3C139.85 22.3 138.14 21.66 136.98 20.38C135.82 19.1 135.24 17.4 135.24 15.28V13.48C135.24 12.06 135.5 10.83 136.02 9.79C136.54 8.75 137.28 7.94 138.24 7.36C139.2 6.78 140.33 6.49 141.63 6.49C142.69 6.49 143.68 6.71 144.6 7.15C145.54 7.57 146.3 8.24 146.88 9.16C147.48 10.06 147.78 11.22 147.78 12.64C147.78 13.06 147.75 13.51 147.69 13.99C147.63 14.45 147.53 14.94 147.39 15.46H138.57C138.61 16.7 138.92 17.63 139.5 18.25C140.08 18.87 141.01 19.18 142.29 19.18C142.97 19.18 143.67 19.1 144.39 18.94C145.13 18.78 145.89 18.54 146.67 18.22L147.66 21.13ZM141.63 9.4C140.71 9.4 139.99 9.7 139.47 10.3C138.97 10.88 138.68 11.72 138.6 12.82H144.36C144.38 12.72 144.39 12.63 144.39 12.55C144.39 12.45 144.39 12.36 144.39 12.28C144.39 11.32 144.12 10.6 143.58 10.12C143.04 9.64 142.39 9.4 141.63 9.4ZM154.395 13.51V15.28C154.395 16.56 154.625 17.52 155.085 18.16C155.545 18.8 156.285 19.12 157.305 19.12C157.805 19.12 158.365 19.06 158.985 18.94C159.625 18.8 160.315 18.59 161.055 18.31L162.045 21.22C161.145 21.58 160.295 21.85 159.495 22.03C158.695 22.21 157.905 22.3 157.125 22.3C155.125 22.3 153.595 21.66 152.535 20.38C151.475 19.1 150.945 17.4 150.945 15.28V13.51C150.945 11.37 151.475 9.67 152.535 8.41C153.595 7.13 155.125 6.49 157.125 6.49C157.885 6.49 158.655 6.58 159.435 6.76C160.215 6.94 161.035 7.2 161.895 7.54L160.905 10.51C159.465 9.95 158.265 9.67 157.305 9.67C156.285 9.67 155.545 9.99 155.085 10.63C154.625 11.25 154.395 12.21 154.395 13.51ZM174.352 21.49C173.832 21.73 173.232 21.92 172.552 22.06C171.872 22.22 171.182 22.3 170.482 22.3C169.322 22.3 168.392 22.06 167.692 21.58C166.992 21.1 166.482 20.43 166.162 19.57C165.862 18.71 165.712 17.73 165.712 16.63V9.79H163.252V6.79H165.712V2.83H169.162V6.79H173.902V9.79H169.162V16.63C169.162 17.55 169.332 18.19 169.672 18.55C170.032 18.89 170.542 19.06 171.202 19.06C171.522 19.06 171.862 19.03 172.222 18.97C172.602 18.89 173.022 18.76 173.482 18.58L174.352 21.49ZM189.576 13.48V15.28C189.576 17.4 188.996 19.1 187.836 20.38C186.676 21.66 185.036 22.3 182.916 22.3C180.796 22.3 179.156 21.66 177.996 20.38C176.836 19.1 176.256 17.4 176.256 15.28V13.48C176.256 11.36 176.826 9.67 177.966 8.41C179.126 7.13 180.776 6.49 182.916 6.49C185.056 6.49 186.696 7.13 187.836 8.41C188.996 9.67 189.576 11.36 189.576 13.48ZM186.036 13.48C186.036 12.26 185.766 11.31 185.226 10.63C184.686 9.93 183.916 9.58 182.916 9.58C181.916 9.58 181.146 9.93 180.606 10.63C180.066 11.31 179.796 12.26 179.796 13.48V15.28C179.796 16.5 180.066 17.46 180.606 18.16C181.146 18.86 181.916 19.21 182.916 19.21C183.916 19.21 184.686 18.86 185.226 18.16C185.766 17.46 186.036 16.5 186.036 15.28V13.48ZM202.024 9.94C201.084 9.94 200.184 10.09 199.324 10.39C198.484 10.67 197.674 11.13 196.894 11.77V22H193.444V6.79H196.714V9.13C197.734 8.17 198.644 7.49 199.444 7.09C200.244 6.69 201.104 6.49 202.024 6.49V9.94ZM205.693 22H202.063V18.43H205.693V22Z" fill="black"/>
</svg>
